PathFileType	4	(X/Y/Z)	37_2_17_p0_0-442_filt_butterworth.trc
DataRate	CameraRate	NumFrames	NumMarkers	Units	OrigDataRate	OrigDataStartFrame	OrigNumFrames
59.0	59.0	6	27	m	59.0	276	442
Frame#	Time	RHip			RKnee			RAnkle			RBigToe			RSmallToe			RHeel			LHip			LKnee			LAnkle			LBigToe			LSmallToe			LHeel			Neck			Head			Nose			RShoulder			RElbow			RWrist			RThumb			RIndex			RPinky			LShoulder			LElbow			LWrist			LThumb			LIndex			LPinky			
		X1	Y1	Z1	X2	Y2	Z2	X3	Y3	Z3	X4	Y4	Z4	X5	Y5	Z5	X6	Y6	Z6	X7	Y7	Z7	X8	Y8	Z8	X9	Y9	Z9	X10	Y10	Z10	X11	Y11	Z11	X12	Y12	Z12	X13	Y13	Z13	X14	Y14	Z14	X15	Y15	Z15	X16	Y16	Z16	X17	Y17	Z17	X18	Y18	Z18	X19	Y19	Z19	X20	Y20	Z20	X21	Y21	Z21	X22	Y22	Z22	X23	Y23	Z23	X24	Y24	Z24	X25	Y25	Z25	X26	Y26	Z26	X27	Y27	Z27	
276	4.677966101694915	0.38504211913383274	0.7542202817531191	0.55083780415515	0.3400742575604816	0.8155516498736086	0.963020814411045	0.3858200597575372	1.0264235593859643	1.368311747899313	0.3294055161182114	0.8759907556226845	1.4345771497020305	0.3955230093758439	0.8801848808766075	1.4332791229966042	0.37333704669682166	1.166592131403212	1.4302124960565021	0.16464558533678378	0.7747346837870794	0.532953360995997	0.17825365871525203	0.8413082616002778	0.9420058559127001	0.17254259081833248	1.0612951549291225	1.3755443018188394	0.16715225186056404	0.8756974641522269	1.411192264662839	0.1121933277952194	0.9396545557984786	1.4149800859972868	0.19624045859747602	1.1274454086819112	1.4287886556402885	0.27048076672381	0.5312029792114261	-0.015459880309600585	0.2514597794166979	0.35163984966449446	-0.21888543447908843	0.23979356329425727	0.37493935077083024	-0.09030026613582652	0.422155277501442	0.5529818810382311	0.07449249888705996	0.5160607242864055	0.635114224391046	0.32341648628451475	0.40867367866174603	0.4934455515272177	0.4836343065991103	0.292094230731625	0.47427275478374303	0.5243248118981599	0.30298823871912967	0.45939043096554705	0.5405845349218357	0.3599292233219975	0.513263419760556	0.5736232403207874	0.10980706296473339	0.5997329913221725	0.05341486287500749	0.08526828926681528	0.6858178267963829	0.29934309201930326	0.12614228879383738	0.5493018339653967	0.4237583577549021	0.18165782756092505	0.4494735737020685	0.4350638079440454	0.16240071377430237	0.4198956501343817	0.4521868511140343	0.1583447046899164	0.46870231164357046	0.4902371847433765
277	4.694915254237288	0.3865249213604361	0.7550858151205644	0.5454653559359813	0.3393398201959307	0.8151172256618666	0.9627926858970246	0.3858019391822737	1.026422353959916	1.368288097774157	0.3296987095322313	0.8739158718503847	1.4338250897671978	0.3958558068722596	0.8756449579111798	1.4319209750876298	0.3733089092811072	1.1672225819964026	1.430304772811243	0.16650179853081198	0.7699361243858911	0.5293304950517046	0.1782814985505846	0.8407257555232188	0.9405699374191756	0.17238552525240083	1.0613284857273475	1.3754998125366396	0.1672059048035617	0.8758778242019017	1.411165888365913	0.11206482804480372	0.940039735630549	1.4150349813898575	0.19621106593577267	1.1273052633859655	1.42865805193103	0.26645296916552746	0.5251459965776144	-0.014086527071967293	0.24605118078003332	0.35880520737356825	-0.2217501718303648	0.23131886080891256	0.3830885613308064	-0.09234554596712	0.4211199817454916	0.5516491667848901	0.0755161172881013	0.5120941995281489	0.631336330331646	0.3270245361374598	0.39667587380434144	0.4822755154551662	0.4870852949778466	0.28559772962140434	0.47496242729419086	0.531101300833565	0.29413276390434706	0.46329439477591483	0.5438102636513235	0.3534927101484353	0.5143377054766568	0.5755839001142413	0.10839768393540565	0.59667178614071	0.05773804788406731	0.09796567196002248	0.6873425187470834	0.2996951853936912	0.12256341716769376	0.5522077638255394	0.4243380981233703	0.1641184349679942	0.44591980790014835	0.4393561677680272	0.14097467466909375	0.4035732995844381	0.45701183005016827	0.13720654332390725	0.46946253661481496	0.49778432159978553
278	4.711864406779661	0.38790021693654947	0.757350809662306	0.5390325086705227	0.3383605644694848	0.8129843303756349	0.9622554895337345	0.3857873086184128	1.0263990391582163	1.3682596344487965	0.3297132046510211	0.8737748444711828	1.433737522388675	0.39634597880454225	0.8696772249778209	1.4301247237948498	0.3732610837442905	1.1674273727366427	1.4303195240590487	0.16948874154939544	0.7626273036925028	0.5254311988802809	0.17818740666115085	0.8400972430843282	0.9398780159647657	0.1724735229319797	1.0612560757079215	1.3754404739938222	0.1671872461031953	0.8758261331205333	1.4110431646583175	0.11198673062531428	0.9400538239772724	1.4150029651154026	0.19609120358035995	1.1272684086321998	1.4287017158817432	0.2623647274462497	0.5192086469688146	-0.011368342880445553	0.2394734522977891	0.3625532847659572	-0.22313016636620253	0.2246384622908907	0.3872102737994078	-0.09217809380718803	0.4206396620629582	0.5513794399200966	0.07600981288603254	0.5079664615557838	0.6304519227083015	0.3299244639661377	0.38897844722468394	0.4752545622926352	0.4896467680479145	0.28318216970382265	0.4752295393713957	0.5388443919680126	0.2907066829126998	0.4671512394258835	0.5502115691407878	0.34736906469302165	0.5098692033800496	0.5779823132592239	0.10731113967496266	0.596252527430828	0.06336438262988672	0.10630680930214234	0.6877500165399015	0.2995633876168873	0.11774972510659808	0.557541015051433	0.42760542324675727	0.14287577909045057	0.44039969122152267	0.44386872770547475	0.12185406736833612	0.3971970954847939	0.4656910098262922	0.11659254652438131	0.47607674182110693	0.5062446029235529
279	4.728813559322034	0.3889265333031949	0.7596066323711241	0.533063599130073	0.3380139177933719	0.8083506761648533	0.9612728444974672	0.38575943047628447	1.0263435312256322	1.3682450868314406	0.32961351041624604	0.8740535863783381	1.4338761502743327	0.39674303808416894	0.8652354036265738	1.42879602614778	0.3733672463262562	1.1656344703866879	1.4302723778968773	0.17207510469641538	0.7547888485311175	0.5218240923206495	0.17805187873752465	0.8398720696821828	0.9402026612802282	0.17257614900570123	1.0611668291830287	1.37535621621867	0.16712153016121897	0.8755963061069736	1.4109877439212684	0.11195128416848928	0.9399662573848938	1.414987675682815	0.19639392188600804	1.1287093609787269	1.429181702267151	0.258820413713845	0.5138067860126625	-0.007292871100996702	0.23236257586979042	0.3646546785511462	-0.22254078904187385	0.219850995455749	0.3910535829749766	-0.09092791151312642	0.4204138482920944	0.5514718835761525	0.07646336503005834	0.5039729016586177	0.6321452644385909	0.33205553083732614	0.384828504849595	0.4708214420245854	0.49138267297036997	0.2826388991099507	0.4758384602134065	0.5466762138432868	0.29074680249445933	0.4674685055374652	0.5578889031850962	0.3429023472149643	0.5027753955056202	0.5809012281514173	0.10687733742110078	0.5996801546647381	0.06856269372563853	0.11005289809742114	0.6871755736566703	0.2991673661272785	0.11103899308601087	0.5688895544681504	0.43184663320381467	0.12148686576974344	0.43417571711293124	0.44720016987496114	0.10421927941845066	0.4045851199250562	0.47698219299078076	0.09935175720234612	0.48246257594338104	0.5138984824072289
280	4.745762711864407	0.38928548960072673	0.7605128488536989	0.5286830967160453	0.33849944775034807	0.8023420826871308	0.9600956538414014	0.38571228033927296	1.026336883007898	1.3682543033002728	0.3294919759283039	0.8741602622349031	1.434020414078325	0.3969432777208778	0.8634990826260882	1.4283187409642935	0.37384838666242937	1.1605361824828193	1.4302152570076332	0.17376711172634896	0.7486062774024358	0.5178060111606801	0.177979150198973	0.840436186526281	0.9417273772758754	0.17263508235793765	1.061060397823052	1.3752287207052292	0.1666767591621932	0.8741451266468004	1.4109899288316181	0.11188461897793682	0.9401072727399329	1.4150461491691928	0.1976163892389359	1.1326248135616852	1.4303518412996574	0.25598844020120554	0.508739749403879	-0.002591075948740515	0.22579509124115016	0.36561385743842056	-0.22002365373603866	0.21622544947380812	0.3964346653465087	-0.0898487680016273	0.4203679825923266	0.5517330981603451	0.07739783238451611	0.5004104373628511	0.6362962773019727	0.33335428955419283	0.38288680853681334	0.46831468406280147	0.49277152878600894	0.2827155522535261	0.47655993170828936	0.5522817456680859	0.29262054844694796	0.46233124506596274	0.5645709430186316	0.34113392233291673	0.4981375858376404	0.5837548385998107	0.10680545036836855	0.6044438238658014	0.07208922489938407	0.11115819588214444	0.6864595965788087	0.2990162131142008	0.10313581242660705	0.5847836158452365	0.4348430082851726	0.10285000348558763	0.43222693996943495	0.44879528230298227	0.08710712036030267	0.42084489868223174	0.4877501118497209	0.08656739403474781	0.48598592499330323	0.5193381254254308
281	4.762711864406779	0.38887744737853924	0.7592985248515258	0.5264882197947043	0.3392015860703189	0.7976446796251992	0.9592286218432984	0.3856712866870526	1.0264409312703147	1.368272091394579	0.3293901535666759	0.8741110922765168	1.4341041092906526	0.39702612864818115	0.8632545916682848	1.4283170810329053	0.37456578618281766	1.1536216200701501	1.4301665912067203	0.17523042845129308	0.7446039275547566	0.514213417557754	0.1779790051923469	0.8415275424815617	0.9440887917019114	0.17262887296855794	1.0609868203008823	1.375210344218571	0.16552353171016254	0.870536541266418	1.4109774951940597	0.11174331077413081	0.9404602446219092	1.4151594925903144	0.19942595615727987	1.1378344075283262	1.431845272919354	0.2534917008146624	0.5037388406837121	0.0014976593964175651	0.2207040411281258	0.36514649932139254	-0.21629372842622813	0.21333097622789804	0.4015693844941467	-0.08912335589588247	0.42044478518881256	0.5521153832166733	0.07866626838525409	0.49788103384751536	0.6415219941141372	0.3338594936949346	0.3824746095860966	0.46689388667110765	0.4936696980979795	0.28294597913016784	0.4757338752430602	0.5528361314079195	0.29493518062547364	0.45239416886132977	0.5677728840575993	0.3414004680545314	0.49604819602895606	0.585058550230384	0.10662204652195471	0.6072305371746043	0.07433984886464239	0.11136983817762627	0.6866061422003691	0.29928084822471357	0.09612819486721302	0.5981603439298924	0.43565912328398376	0.08688668707725311	0.4369628661459968	0.4490900863002802	0.07185344772649434	0.43617953617372723	0.49513198724837376	0.07725136003944466	0.4882547664142869	0.5219589880692054
